<mxfile host="app.diagrams.net" modified="2022-07-22T02:14:41.365Z" agent="5.0 (Windows NT 10.0; Win64; x64) AppleWebKit/537.36 (KHTML, like Gecko) Chrome/103.0.0.0 Safari/537.36" etag="_okL-Ggkt3xyNA39Lmnm" version="20.0.4" type="github">
  <diagram id="IygV-SFr4v1AiApFiOKP" name="Page-1">
    <mxGraphModel dx="1422" dy="786" grid="0" gridSize="10" guides="1" tooltips="1" connect="1" arrows="1" fold="1" page="1" pageScale="1" pageWidth="827" pageHeight="1169" math="0" shadow="0">
      <root>
        <mxCell id="0" />
        <mxCell id="1" parent="0" />
        <mxCell id="gr3GfK4ERSps2pSMuER7-1" value="Khách hàng" style="rounded=0;whiteSpace=wrap;html=1;" vertex="1" parent="1">
          <mxGeometry x="169" y="195" width="81" height="36" as="geometry" />
        </mxCell>
        <mxCell id="gr3GfK4ERSps2pSMuER7-3" value="Nhân viên" style="rounded=0;whiteSpace=wrap;html=1;" vertex="1" parent="1">
          <mxGeometry x="543" y="152" width="81" height="36" as="geometry" />
        </mxCell>
        <mxCell id="gr3GfK4ERSps2pSMuER7-6" value="giới tính" style="ellipse;whiteSpace=wrap;html=1;rounded=0;fontFamily=Helvetica;fontSize=12;fontColor=default;strokeColor=default;fillColor=default;" vertex="1" parent="1">
          <mxGeometry x="155" y="91" width="64" height="41" as="geometry" />
        </mxCell>
        <mxCell id="gr3GfK4ERSps2pSMuER7-7" value="Ngày sinh" style="ellipse;whiteSpace=wrap;html=1;rounded=0;fontFamily=Helvetica;fontSize=12;fontColor=default;strokeColor=default;fillColor=default;" vertex="1" parent="1">
          <mxGeometry x="73" y="111" width="64" height="41" as="geometry" />
        </mxCell>
        <mxCell id="gr3GfK4ERSps2pSMuER7-8" value="Địa chỉ" style="ellipse;whiteSpace=wrap;html=1;rounded=0;fontFamily=Helvetica;fontSize=12;fontColor=default;strokeColor=default;fillColor=default;" vertex="1" parent="1">
          <mxGeometry x="49" y="172" width="64" height="41" as="geometry" />
        </mxCell>
        <mxCell id="gr3GfK4ERSps2pSMuER7-9" value="&lt;u&gt;Mã danh mục&lt;/u&gt;" style="ellipse;whiteSpace=wrap;html=1;rounded=0;fontFamily=Helvetica;fontSize=12;fontColor=default;strokeColor=default;fillColor=default;" vertex="1" parent="1">
          <mxGeometry x="713" y="562.5" width="64" height="41" as="geometry" />
        </mxCell>
        <mxCell id="gr3GfK4ERSps2pSMuER7-10" value="Tên danh mục" style="ellipse;whiteSpace=wrap;html=1;rounded=0;fontFamily=Helvetica;fontSize=12;fontColor=default;strokeColor=default;fillColor=default;" vertex="1" parent="1">
          <mxGeometry x="624" y="603.5" width="64" height="36" as="geometry" />
        </mxCell>
        <mxCell id="gr3GfK4ERSps2pSMuER7-13" value="Sản phẩm" style="rounded=0;whiteSpace=wrap;html=1;" vertex="1" parent="1">
          <mxGeometry x="180" y="470" width="81" height="36" as="geometry" />
        </mxCell>
        <mxCell id="gr3GfK4ERSps2pSMuER7-14" value="Danh mục" style="rounded=0;whiteSpace=wrap;html=1;" vertex="1" parent="1">
          <mxGeometry x="607" y="511" width="81" height="36" as="geometry" />
        </mxCell>
        <mxCell id="gr3GfK4ERSps2pSMuER7-15" value="Tuổi" style="ellipse;whiteSpace=wrap;html=1;rounded=0;fontFamily=Helvetica;fontSize=12;fontColor=default;strokeColor=default;fillColor=default;" vertex="1" parent="1">
          <mxGeometry x="242" y="101" width="64" height="41" as="geometry" />
        </mxCell>
        <mxCell id="gr3GfK4ERSps2pSMuER7-16" value="Tên KH" style="ellipse;whiteSpace=wrap;html=1;rounded=0;fontFamily=Helvetica;fontSize=12;fontColor=default;strokeColor=default;fillColor=default;" vertex="1" parent="1">
          <mxGeometry x="49" y="233" width="64" height="41" as="geometry" />
        </mxCell>
        <mxCell id="gr3GfK4ERSps2pSMuER7-17" value="&lt;u&gt;Mã KH&lt;/u&gt;" style="ellipse;whiteSpace=wrap;html=1;rounded=0;fontFamily=Helvetica;fontSize=12;fontColor=default;strokeColor=default;fillColor=default;" vertex="1" parent="1">
          <mxGeometry x="96" y="294" width="64" height="41" as="geometry" />
        </mxCell>
        <mxCell id="gr3GfK4ERSps2pSMuER7-18" value="" style="endArrow=none;html=1;rounded=0;fontFamily=Helvetica;fontSize=12;fontColor=default;entryX=0.5;entryY=1;entryDx=0;entryDy=0;exitX=1;exitY=0;exitDx=0;exitDy=0;" edge="1" parent="1" source="gr3GfK4ERSps2pSMuER7-17" target="gr3GfK4ERSps2pSMuER7-1">
          <mxGeometry width="50" height="50" relative="1" as="geometry">
            <mxPoint x="464" y="426" as="sourcePoint" />
            <mxPoint x="514" y="376" as="targetPoint" />
          </mxGeometry>
        </mxCell>
        <mxCell id="gr3GfK4ERSps2pSMuER7-19" value="" style="endArrow=none;html=1;rounded=0;fontFamily=Helvetica;fontSize=12;fontColor=default;entryX=0.5;entryY=1;entryDx=0;entryDy=0;exitX=1;exitY=0.5;exitDx=0;exitDy=0;" edge="1" parent="1" source="gr3GfK4ERSps2pSMuER7-16" target="gr3GfK4ERSps2pSMuER7-1">
          <mxGeometry width="50" height="50" relative="1" as="geometry">
            <mxPoint x="464" y="426" as="sourcePoint" />
            <mxPoint x="514" y="376" as="targetPoint" />
          </mxGeometry>
        </mxCell>
        <mxCell id="gr3GfK4ERSps2pSMuER7-20" value="" style="endArrow=none;html=1;rounded=0;fontFamily=Helvetica;fontSize=12;fontColor=default;entryX=1;entryY=0.5;entryDx=0;entryDy=0;exitX=0;exitY=0.5;exitDx=0;exitDy=0;" edge="1" parent="1" source="gr3GfK4ERSps2pSMuER7-1" target="gr3GfK4ERSps2pSMuER7-8">
          <mxGeometry width="50" height="50" relative="1" as="geometry">
            <mxPoint x="464" y="426" as="sourcePoint" />
            <mxPoint x="514" y="376" as="targetPoint" />
          </mxGeometry>
        </mxCell>
        <mxCell id="gr3GfK4ERSps2pSMuER7-21" value="" style="endArrow=none;html=1;rounded=0;fontFamily=Helvetica;fontSize=12;fontColor=default;entryX=0;entryY=0.5;entryDx=0;entryDy=0;exitX=1;exitY=1;exitDx=0;exitDy=0;" edge="1" parent="1" source="gr3GfK4ERSps2pSMuER7-7" target="gr3GfK4ERSps2pSMuER7-1">
          <mxGeometry width="50" height="50" relative="1" as="geometry">
            <mxPoint x="132" y="149" as="sourcePoint" />
            <mxPoint x="514" y="376" as="targetPoint" />
          </mxGeometry>
        </mxCell>
        <mxCell id="gr3GfK4ERSps2pSMuER7-22" value="" style="endArrow=none;html=1;rounded=0;fontFamily=Helvetica;fontSize=12;fontColor=default;entryX=0.625;entryY=0.976;entryDx=0;entryDy=0;entryPerimeter=0;exitX=0.5;exitY=0;exitDx=0;exitDy=0;" edge="1" parent="1" source="gr3GfK4ERSps2pSMuER7-1" target="gr3GfK4ERSps2pSMuER7-6">
          <mxGeometry width="50" height="50" relative="1" as="geometry">
            <mxPoint x="464" y="426" as="sourcePoint" />
            <mxPoint x="514" y="376" as="targetPoint" />
          </mxGeometry>
        </mxCell>
        <mxCell id="gr3GfK4ERSps2pSMuER7-23" value="" style="endArrow=none;html=1;rounded=0;fontFamily=Helvetica;fontSize=12;fontColor=default;entryX=0.297;entryY=0.951;entryDx=0;entryDy=0;entryPerimeter=0;exitX=0.5;exitY=0;exitDx=0;exitDy=0;" edge="1" parent="1" source="gr3GfK4ERSps2pSMuER7-1" target="gr3GfK4ERSps2pSMuER7-15">
          <mxGeometry width="50" height="50" relative="1" as="geometry">
            <mxPoint x="464" y="426" as="sourcePoint" />
            <mxPoint x="514" y="376" as="targetPoint" />
          </mxGeometry>
        </mxCell>
        <mxCell id="gr3GfK4ERSps2pSMuER7-24" value="&lt;u&gt;Mã nv&lt;/u&gt;" style="ellipse;whiteSpace=wrap;html=1;rounded=0;fontFamily=Helvetica;fontSize=12;fontColor=default;strokeColor=default;fillColor=default;" vertex="1" parent="1">
          <mxGeometry x="446" y="81" width="64" height="41" as="geometry" />
        </mxCell>
        <mxCell id="gr3GfK4ERSps2pSMuER7-25" value="Tên nv" style="ellipse;whiteSpace=wrap;html=1;rounded=0;fontFamily=Helvetica;fontSize=12;fontColor=default;strokeColor=default;fillColor=default;" vertex="1" parent="1">
          <mxGeometry x="492" y="43" width="64" height="41" as="geometry" />
        </mxCell>
        <mxCell id="gr3GfK4ERSps2pSMuER7-26" value="Địa chỉ" style="ellipse;whiteSpace=wrap;html=1;rounded=0;fontFamily=Helvetica;fontSize=12;fontColor=default;strokeColor=default;fillColor=default;" vertex="1" parent="1">
          <mxGeometry x="569" y="43" width="64" height="41" as="geometry" />
        </mxCell>
        <mxCell id="gr3GfK4ERSps2pSMuER7-27" value="Ngày sinh" style="ellipse;whiteSpace=wrap;html=1;rounded=0;fontFamily=Helvetica;fontSize=12;fontColor=default;strokeColor=default;fillColor=default;" vertex="1" parent="1">
          <mxGeometry x="649" y="66" width="64" height="41" as="geometry" />
        </mxCell>
        <mxCell id="gr3GfK4ERSps2pSMuER7-28" value="giới tính" style="ellipse;whiteSpace=wrap;html=1;rounded=0;fontFamily=Helvetica;fontSize=12;fontColor=default;strokeColor=default;fillColor=default;" vertex="1" parent="1">
          <mxGeometry x="675" y="114" width="64" height="41" as="geometry" />
        </mxCell>
        <mxCell id="gr3GfK4ERSps2pSMuER7-29" value="Sđt" style="ellipse;whiteSpace=wrap;html=1;rounded=0;fontFamily=Helvetica;fontSize=12;fontColor=default;strokeColor=default;fillColor=default;" vertex="1" parent="1">
          <mxGeometry x="741" y="188" width="64" height="41" as="geometry" />
        </mxCell>
        <mxCell id="gr3GfK4ERSps2pSMuER7-30" value="Tuổi" style="ellipse;whiteSpace=wrap;html=1;rounded=0;fontFamily=Helvetica;fontSize=12;fontColor=default;strokeColor=default;fillColor=default;" vertex="1" parent="1">
          <mxGeometry x="529" y="234" width="64" height="41" as="geometry" />
        </mxCell>
        <mxCell id="gr3GfK4ERSps2pSMuER7-31" value="Email" style="ellipse;whiteSpace=wrap;html=1;rounded=0;fontFamily=Helvetica;fontSize=12;fontColor=default;strokeColor=default;fillColor=default;" vertex="1" parent="1">
          <mxGeometry x="671" y="229" width="64" height="41" as="geometry" />
        </mxCell>
        <mxCell id="gr3GfK4ERSps2pSMuER7-32" value="Chức vụ" style="ellipse;whiteSpace=wrap;html=1;rounded=0;fontFamily=Helvetica;fontSize=12;fontColor=default;strokeColor=default;fillColor=default;" vertex="1" parent="1">
          <mxGeometry x="603" y="256" width="64" height="41" as="geometry" />
        </mxCell>
        <mxCell id="gr3GfK4ERSps2pSMuER7-34" value="" style="endArrow=none;html=1;rounded=0;fontFamily=Helvetica;fontSize=12;fontColor=default;entryX=0.5;entryY=1;entryDx=0;entryDy=0;exitX=0.5;exitY=0;exitDx=0;exitDy=0;" edge="1" parent="1" source="gr3GfK4ERSps2pSMuER7-32" target="gr3GfK4ERSps2pSMuER7-3">
          <mxGeometry width="50" height="50" relative="1" as="geometry">
            <mxPoint x="464" y="427" as="sourcePoint" />
            <mxPoint x="514" y="377" as="targetPoint" />
          </mxGeometry>
        </mxCell>
        <mxCell id="gr3GfK4ERSps2pSMuER7-35" value="" style="endArrow=none;html=1;rounded=0;fontFamily=Helvetica;fontSize=12;fontColor=default;entryX=0.5;entryY=0;entryDx=0;entryDy=0;exitX=0.5;exitY=1;exitDx=0;exitDy=0;" edge="1" parent="1" source="gr3GfK4ERSps2pSMuER7-3" target="gr3GfK4ERSps2pSMuER7-31">
          <mxGeometry width="50" height="50" relative="1" as="geometry">
            <mxPoint x="464" y="427" as="sourcePoint" />
            <mxPoint x="514" y="377" as="targetPoint" />
          </mxGeometry>
        </mxCell>
        <mxCell id="gr3GfK4ERSps2pSMuER7-36" value="" style="endArrow=none;html=1;rounded=0;fontFamily=Helvetica;fontSize=12;fontColor=default;entryX=0;entryY=0.366;entryDx=0;entryDy=0;entryPerimeter=0;exitX=0.5;exitY=1;exitDx=0;exitDy=0;" edge="1" parent="1" source="gr3GfK4ERSps2pSMuER7-3" target="gr3GfK4ERSps2pSMuER7-29">
          <mxGeometry width="50" height="50" relative="1" as="geometry">
            <mxPoint x="464" y="427" as="sourcePoint" />
            <mxPoint x="514" y="377" as="targetPoint" />
          </mxGeometry>
        </mxCell>
        <mxCell id="gr3GfK4ERSps2pSMuER7-37" value="" style="endArrow=none;html=1;rounded=0;fontFamily=Helvetica;fontSize=12;fontColor=default;entryX=0.5;entryY=1;entryDx=0;entryDy=0;exitX=0.719;exitY=0.073;exitDx=0;exitDy=0;exitPerimeter=0;" edge="1" parent="1" source="gr3GfK4ERSps2pSMuER7-30" target="gr3GfK4ERSps2pSMuER7-3">
          <mxGeometry width="50" height="50" relative="1" as="geometry">
            <mxPoint x="464" y="427" as="sourcePoint" />
            <mxPoint x="514" y="377" as="targetPoint" />
          </mxGeometry>
        </mxCell>
        <mxCell id="gr3GfK4ERSps2pSMuER7-38" value="" style="endArrow=none;html=1;rounded=0;fontFamily=Helvetica;fontSize=12;fontColor=default;entryX=0.672;entryY=0.976;entryDx=0;entryDy=0;entryPerimeter=0;exitX=0.5;exitY=0;exitDx=0;exitDy=0;" edge="1" parent="1" source="gr3GfK4ERSps2pSMuER7-3" target="gr3GfK4ERSps2pSMuER7-25">
          <mxGeometry width="50" height="50" relative="1" as="geometry">
            <mxPoint x="464" y="427" as="sourcePoint" />
            <mxPoint x="514" y="377" as="targetPoint" />
          </mxGeometry>
        </mxCell>
        <mxCell id="gr3GfK4ERSps2pSMuER7-39" value="" style="endArrow=none;html=1;rounded=0;fontFamily=Helvetica;fontSize=12;fontColor=default;entryX=0.5;entryY=0;entryDx=0;entryDy=0;exitX=1;exitY=0.659;exitDx=0;exitDy=0;exitPerimeter=0;" edge="1" parent="1" source="gr3GfK4ERSps2pSMuER7-24" target="gr3GfK4ERSps2pSMuER7-3">
          <mxGeometry width="50" height="50" relative="1" as="geometry">
            <mxPoint x="464" y="427" as="sourcePoint" />
            <mxPoint x="514" y="377" as="targetPoint" />
          </mxGeometry>
        </mxCell>
        <mxCell id="gr3GfK4ERSps2pSMuER7-40" value="" style="endArrow=none;html=1;rounded=0;fontFamily=Helvetica;fontSize=12;fontColor=default;exitX=0.5;exitY=0;exitDx=0;exitDy=0;" edge="1" parent="1" source="gr3GfK4ERSps2pSMuER7-3" target="gr3GfK4ERSps2pSMuER7-26">
          <mxGeometry width="50" height="50" relative="1" as="geometry">
            <mxPoint x="464" y="427" as="sourcePoint" />
            <mxPoint x="514" y="377" as="targetPoint" />
          </mxGeometry>
        </mxCell>
        <mxCell id="gr3GfK4ERSps2pSMuER7-41" value="" style="endArrow=none;html=1;rounded=0;fontFamily=Helvetica;fontSize=12;fontColor=default;entryX=0.047;entryY=0.829;entryDx=0;entryDy=0;entryPerimeter=0;exitX=0.5;exitY=0;exitDx=0;exitDy=0;" edge="1" parent="1" source="gr3GfK4ERSps2pSMuER7-3" target="gr3GfK4ERSps2pSMuER7-27">
          <mxGeometry width="50" height="50" relative="1" as="geometry">
            <mxPoint x="464" y="427" as="sourcePoint" />
            <mxPoint x="514" y="377" as="targetPoint" />
          </mxGeometry>
        </mxCell>
        <mxCell id="gr3GfK4ERSps2pSMuER7-42" value="" style="endArrow=none;html=1;rounded=0;fontFamily=Helvetica;fontSize=12;fontColor=default;entryX=0;entryY=0.5;entryDx=0;entryDy=0;exitX=0.5;exitY=0;exitDx=0;exitDy=0;" edge="1" parent="1" source="gr3GfK4ERSps2pSMuER7-3" target="gr3GfK4ERSps2pSMuER7-28">
          <mxGeometry width="50" height="50" relative="1" as="geometry">
            <mxPoint x="464" y="427" as="sourcePoint" />
            <mxPoint x="514" y="377" as="targetPoint" />
          </mxGeometry>
        </mxCell>
        <mxCell id="gr3GfK4ERSps2pSMuER7-43" value="Tên sp" style="ellipse;whiteSpace=wrap;html=1;rounded=0;fontFamily=Helvetica;fontSize=12;fontColor=default;strokeColor=default;fillColor=default;" vertex="1" parent="1">
          <mxGeometry x="30" y="555" width="64" height="41" as="geometry" />
        </mxCell>
        <mxCell id="gr3GfK4ERSps2pSMuER7-44" value="Gía" style="ellipse;whiteSpace=wrap;html=1;rounded=0;fontFamily=Helvetica;fontSize=12;fontColor=default;strokeColor=default;fillColor=default;" vertex="1" parent="1">
          <mxGeometry x="44" y="617.5" width="64" height="41" as="geometry" />
        </mxCell>
        <mxCell id="gr3GfK4ERSps2pSMuER7-45" value="&lt;u&gt;Mã sp&lt;/u&gt;" style="ellipse;whiteSpace=wrap;html=1;rounded=0;fontFamily=Helvetica;fontSize=12;fontColor=default;strokeColor=default;fillColor=default;" vertex="1" parent="1">
          <mxGeometry x="42" y="496" width="64" height="41" as="geometry" />
        </mxCell>
        <mxCell id="gr3GfK4ERSps2pSMuER7-46" value="Hình ảnh" style="ellipse;whiteSpace=wrap;html=1;rounded=0;fontFamily=Helvetica;fontSize=12;fontColor=default;strokeColor=default;fillColor=default;" vertex="1" parent="1">
          <mxGeometry x="279" y="634" width="64" height="41" as="geometry" />
        </mxCell>
        <mxCell id="gr3GfK4ERSps2pSMuER7-47" value="Số lượng" style="ellipse;whiteSpace=wrap;html=1;rounded=0;fontFamily=Helvetica;fontSize=12;fontColor=default;strokeColor=default;fillColor=default;" vertex="1" parent="1">
          <mxGeometry x="101" y="671" width="64" height="41" as="geometry" />
        </mxCell>
        <mxCell id="gr3GfK4ERSps2pSMuER7-48" value="Trạng thái" style="ellipse;whiteSpace=wrap;html=1;rounded=0;fontFamily=Helvetica;fontSize=12;fontColor=default;strokeColor=default;fillColor=default;" vertex="1" parent="1">
          <mxGeometry x="194" y="644" width="64" height="41" as="geometry" />
        </mxCell>
        <mxCell id="gr3GfK4ERSps2pSMuER7-49" value="" style="endArrow=none;html=1;rounded=0;fontFamily=Helvetica;fontSize=12;fontColor=default;exitX=0.5;exitY=0;exitDx=0;exitDy=0;" edge="1" parent="1" source="gr3GfK4ERSps2pSMuER7-48" target="gr3GfK4ERSps2pSMuER7-13">
          <mxGeometry width="50" height="50" relative="1" as="geometry">
            <mxPoint x="464" y="427" as="sourcePoint" />
            <mxPoint x="514" y="377" as="targetPoint" />
          </mxGeometry>
        </mxCell>
        <mxCell id="gr3GfK4ERSps2pSMuER7-50" value="" style="endArrow=none;html=1;rounded=0;fontFamily=Helvetica;fontSize=12;fontColor=default;exitX=0.5;exitY=0;exitDx=0;exitDy=0;entryX=0.5;entryY=1;entryDx=0;entryDy=0;" edge="1" parent="1" source="gr3GfK4ERSps2pSMuER7-46" target="gr3GfK4ERSps2pSMuER7-13">
          <mxGeometry width="50" height="50" relative="1" as="geometry">
            <mxPoint x="464" y="427" as="sourcePoint" />
            <mxPoint x="514" y="377" as="targetPoint" />
          </mxGeometry>
        </mxCell>
        <mxCell id="gr3GfK4ERSps2pSMuER7-51" value="" style="endArrow=none;html=1;rounded=0;fontFamily=Helvetica;fontSize=12;fontColor=default;exitX=0.641;exitY=0.049;exitDx=0;exitDy=0;exitPerimeter=0;entryX=0.5;entryY=1;entryDx=0;entryDy=0;" edge="1" parent="1" source="gr3GfK4ERSps2pSMuER7-47" target="gr3GfK4ERSps2pSMuER7-13">
          <mxGeometry width="50" height="50" relative="1" as="geometry">
            <mxPoint x="464" y="427" as="sourcePoint" />
            <mxPoint x="224" y="399" as="targetPoint" />
          </mxGeometry>
        </mxCell>
        <mxCell id="gr3GfK4ERSps2pSMuER7-52" value="" style="endArrow=none;html=1;rounded=0;fontFamily=Helvetica;fontSize=12;fontColor=default;exitX=1;exitY=0.5;exitDx=0;exitDy=0;entryX=0.5;entryY=1;entryDx=0;entryDy=0;" edge="1" parent="1" source="gr3GfK4ERSps2pSMuER7-44" target="gr3GfK4ERSps2pSMuER7-13">
          <mxGeometry width="50" height="50" relative="1" as="geometry">
            <mxPoint x="464" y="427" as="sourcePoint" />
            <mxPoint x="514" y="377" as="targetPoint" />
          </mxGeometry>
        </mxCell>
        <mxCell id="gr3GfK4ERSps2pSMuER7-53" value="" style="endArrow=none;html=1;rounded=0;fontFamily=Helvetica;fontSize=12;fontColor=default;exitX=1;exitY=0.5;exitDx=0;exitDy=0;entryX=0.5;entryY=1;entryDx=0;entryDy=0;" edge="1" parent="1" source="gr3GfK4ERSps2pSMuER7-43" target="gr3GfK4ERSps2pSMuER7-13">
          <mxGeometry width="50" height="50" relative="1" as="geometry">
            <mxPoint x="464" y="427" as="sourcePoint" />
            <mxPoint x="514" y="377" as="targetPoint" />
          </mxGeometry>
        </mxCell>
        <mxCell id="gr3GfK4ERSps2pSMuER7-54" value="" style="endArrow=none;html=1;rounded=0;fontFamily=Helvetica;fontSize=12;fontColor=default;exitX=0.969;exitY=0.829;exitDx=0;exitDy=0;exitPerimeter=0;entryX=0.5;entryY=1;entryDx=0;entryDy=0;" edge="1" parent="1" source="gr3GfK4ERSps2pSMuER7-45" target="gr3GfK4ERSps2pSMuER7-13">
          <mxGeometry width="50" height="50" relative="1" as="geometry">
            <mxPoint x="464" y="427" as="sourcePoint" />
            <mxPoint x="514" y="377" as="targetPoint" />
          </mxGeometry>
        </mxCell>
        <mxCell id="gr3GfK4ERSps2pSMuER7-55" value="" style="endArrow=none;html=1;rounded=0;fontFamily=Helvetica;fontSize=12;fontColor=default;entryX=0;entryY=0;entryDx=0;entryDy=0;exitX=1;exitY=1;exitDx=0;exitDy=0;" edge="1" parent="1" source="gr3GfK4ERSps2pSMuER7-14" target="gr3GfK4ERSps2pSMuER7-9">
          <mxGeometry width="50" height="50" relative="1" as="geometry">
            <mxPoint x="482" y="518" as="sourcePoint" />
            <mxPoint x="532" y="468" as="targetPoint" />
          </mxGeometry>
        </mxCell>
        <mxCell id="gr3GfK4ERSps2pSMuER7-56" value="" style="endArrow=none;html=1;rounded=0;fontFamily=Helvetica;fontSize=12;fontColor=default;exitX=0.328;exitY=0.042;exitDx=0;exitDy=0;exitPerimeter=0;entryX=0.5;entryY=1;entryDx=0;entryDy=0;" edge="1" parent="1" source="gr3GfK4ERSps2pSMuER7-10" target="gr3GfK4ERSps2pSMuER7-14">
          <mxGeometry width="50" height="50" relative="1" as="geometry">
            <mxPoint x="482" y="518" as="sourcePoint" />
            <mxPoint x="532" y="468" as="targetPoint" />
          </mxGeometry>
        </mxCell>
        <mxCell id="gr3GfK4ERSps2pSMuER7-57" value="Thuộc" style="rhombus;whiteSpace=wrap;html=1;rounded=0;fontFamily=Helvetica;fontSize=12;fontColor=default;strokeColor=default;fillColor=default;" vertex="1" parent="1">
          <mxGeometry x="414" y="496" width="80" height="39" as="geometry" />
        </mxCell>
        <mxCell id="gr3GfK4ERSps2pSMuER7-58" value="" style="endArrow=none;html=1;rounded=0;fontFamily=Helvetica;fontSize=12;fontColor=default;entryX=0;entryY=0.5;entryDx=0;entryDy=0;exitX=1;exitY=0.5;exitDx=0;exitDy=0;" edge="1" parent="1" source="gr3GfK4ERSps2pSMuER7-57" target="gr3GfK4ERSps2pSMuER7-14">
          <mxGeometry width="50" height="50" relative="1" as="geometry">
            <mxPoint x="482" y="504" as="sourcePoint" />
            <mxPoint x="532" y="454" as="targetPoint" />
          </mxGeometry>
        </mxCell>
        <mxCell id="gr3GfK4ERSps2pSMuER7-59" value="" style="endArrow=none;html=1;rounded=0;fontFamily=Helvetica;fontSize=12;fontColor=default;exitX=1;exitY=0.5;exitDx=0;exitDy=0;entryX=0;entryY=0.487;entryDx=0;entryDy=0;entryPerimeter=0;" edge="1" parent="1" source="gr3GfK4ERSps2pSMuER7-13" target="gr3GfK4ERSps2pSMuER7-57">
          <mxGeometry width="50" height="50" relative="1" as="geometry">
            <mxPoint x="464" y="413" as="sourcePoint" />
            <mxPoint x="514" y="363" as="targetPoint" />
          </mxGeometry>
        </mxCell>
        <mxCell id="gr3GfK4ERSps2pSMuER7-60" value="(1,1)" style="text;html=1;align=center;verticalAlign=middle;resizable=0;points=[];autosize=1;strokeColor=none;fillColor=none;fontSize=12;fontFamily=Helvetica;fontColor=default;" vertex="1" parent="1">
          <mxGeometry x="258" y="470" width="43" height="26" as="geometry" />
        </mxCell>
        <mxCell id="gr3GfK4ERSps2pSMuER7-61" value="(1,n)" style="text;html=1;align=center;verticalAlign=middle;resizable=0;points=[];autosize=1;strokeColor=none;fillColor=none;fontSize=12;fontFamily=Helvetica;fontColor=default;" vertex="1" parent="1">
          <mxGeometry x="562" y="502.5" width="43" height="26" as="geometry" />
        </mxCell>
        <mxCell id="gr3GfK4ERSps2pSMuER7-63" value="1 nhân viên có thể tạo ra đơn hàng khi khách hàng mua sp của cửa hàng" style="text;html=1;align=center;verticalAlign=middle;resizable=0;points=[];autosize=1;strokeColor=none;fillColor=none;fontSize=12;fontFamily=Helvetica;fontColor=default;" vertex="1" parent="1">
          <mxGeometry x="388" y="756" width="408" height="26" as="geometry" />
        </mxCell>
        <mxCell id="gr3GfK4ERSps2pSMuER7-65" value="1&amp;nbsp; sp thuộc về 1 danh mục và 1 danh mục có thể có n sp" style="text;html=1;align=center;verticalAlign=middle;resizable=0;points=[];autosize=1;strokeColor=none;fillColor=none;fontSize=12;fontFamily=Helvetica;fontColor=default;" vertex="1" parent="1">
          <mxGeometry x="447" y="733" width="319" height="26" as="geometry" />
        </mxCell>
        <mxCell id="gr3GfK4ERSps2pSMuER7-67" value="Đơn hàng" style="shape=ext;margin=3;double=1;whiteSpace=wrap;html=1;align=center;rounded=0;fontFamily=Helvetica;fontSize=12;fontColor=default;strokeColor=default;fillColor=default;" vertex="1" parent="1">
          <mxGeometry x="325" y="288" width="100" height="40" as="geometry" />
        </mxCell>
        <mxCell id="gr3GfK4ERSps2pSMuER7-68" value="Sp-Đh" style="shape=rhombus;double=1;perimeter=rhombusPerimeter;whiteSpace=wrap;html=1;align=center;rounded=0;fontFamily=Helvetica;fontSize=12;fontColor=default;strokeColor=default;fillColor=default;" vertex="1" parent="1">
          <mxGeometry x="250" y="379" width="99" height="48" as="geometry" />
        </mxCell>
        <mxCell id="gr3GfK4ERSps2pSMuER7-69" value="Đh-Sp" style="shape=rhombus;double=1;perimeter=rhombusPerimeter;whiteSpace=wrap;html=1;align=center;rounded=0;fontFamily=Helvetica;fontSize=12;fontColor=default;strokeColor=default;fillColor=default;" vertex="1" parent="1">
          <mxGeometry x="411" y="201" width="99" height="48" as="geometry" />
        </mxCell>
        <mxCell id="gr3GfK4ERSps2pSMuER7-70" value="(1,n)" style="text;html=1;align=center;verticalAlign=middle;resizable=0;points=[];autosize=1;strokeColor=none;fillColor=none;fontSize=12;fontFamily=Helvetica;fontColor=default;" vertex="1" parent="1">
          <mxGeometry x="499.5" y="165" width="43" height="26" as="geometry" />
        </mxCell>
        <mxCell id="gr3GfK4ERSps2pSMuER7-71" value="" style="endArrow=none;html=1;rounded=0;fontFamily=Helvetica;fontSize=12;fontColor=default;entryX=0;entryY=1;entryDx=0;entryDy=0;exitX=1;exitY=0.5;exitDx=0;exitDy=0;" edge="1" parent="1" source="gr3GfK4ERSps2pSMuER7-69" target="gr3GfK4ERSps2pSMuER7-3">
          <mxGeometry width="50" height="50" relative="1" as="geometry">
            <mxPoint x="299" y="423" as="sourcePoint" />
            <mxPoint x="349" y="373" as="targetPoint" />
          </mxGeometry>
        </mxCell>
        <mxCell id="gr3GfK4ERSps2pSMuER7-72" value="" style="endArrow=none;html=1;rounded=0;fontFamily=Helvetica;fontSize=12;fontColor=default;exitX=0.5;exitY=0;exitDx=0;exitDy=0;entryX=0;entryY=0.5;entryDx=0;entryDy=0;" edge="1" parent="1" source="gr3GfK4ERSps2pSMuER7-13" target="gr3GfK4ERSps2pSMuER7-68">
          <mxGeometry width="50" height="50" relative="1" as="geometry">
            <mxPoint x="299" y="423" as="sourcePoint" />
            <mxPoint x="349" y="373" as="targetPoint" />
          </mxGeometry>
        </mxCell>
        <mxCell id="gr3GfK4ERSps2pSMuER7-73" value="" style="endArrow=none;html=1;rounded=0;fontFamily=Helvetica;fontSize=12;fontColor=default;entryX=1;entryY=0.5;entryDx=0;entryDy=0;exitX=0.5;exitY=1;exitDx=0;exitDy=0;" edge="1" parent="1" source="gr3GfK4ERSps2pSMuER7-67" target="gr3GfK4ERSps2pSMuER7-68">
          <mxGeometry width="50" height="50" relative="1" as="geometry">
            <mxPoint x="299" y="423" as="sourcePoint" />
            <mxPoint x="349" y="373" as="targetPoint" />
          </mxGeometry>
        </mxCell>
        <mxCell id="gr3GfK4ERSps2pSMuER7-74" value="" style="endArrow=none;html=1;rounded=0;fontFamily=Helvetica;fontSize=12;fontColor=default;entryX=0;entryY=0.5;entryDx=0;entryDy=0;exitX=0.5;exitY=0;exitDx=0;exitDy=0;" edge="1" parent="1" source="gr3GfK4ERSps2pSMuER7-67" target="gr3GfK4ERSps2pSMuER7-69">
          <mxGeometry width="50" height="50" relative="1" as="geometry">
            <mxPoint x="299" y="423" as="sourcePoint" />
            <mxPoint x="349" y="373" as="targetPoint" />
          </mxGeometry>
        </mxCell>
        <mxCell id="gr3GfK4ERSps2pSMuER7-75" value="(1,1)" style="text;html=1;align=center;verticalAlign=middle;resizable=0;points=[];autosize=1;strokeColor=none;fillColor=none;fontSize=12;fontFamily=Helvetica;fontColor=default;" vertex="1" parent="1">
          <mxGeometry x="384" y="248" width="43" height="26" as="geometry" />
        </mxCell>
        <mxCell id="gr3GfK4ERSps2pSMuER7-76" value="(1,1)" style="text;html=1;align=center;verticalAlign=middle;resizable=0;points=[];autosize=1;strokeColor=none;fillColor=none;fontSize=12;fontFamily=Helvetica;fontColor=default;" vertex="1" parent="1">
          <mxGeometry x="316" y="367.5" width="43" height="26" as="geometry" />
        </mxCell>
        <mxCell id="gr3GfK4ERSps2pSMuER7-78" value="(1,n)" style="text;html=1;align=center;verticalAlign=middle;resizable=0;points=[];autosize=1;strokeColor=none;fillColor=none;fontSize=12;fontFamily=Helvetica;fontColor=default;" vertex="1" parent="1">
          <mxGeometry x="223" y="446" width="43" height="26" as="geometry" />
        </mxCell>
        <mxCell id="gr3GfK4ERSps2pSMuER7-79" value="&lt;u&gt;Mã đơn hàng&lt;/u&gt;" style="ellipse;whiteSpace=wrap;html=1;rounded=0;fontFamily=Helvetica;fontSize=12;fontColor=default;strokeColor=default;fillColor=default;" vertex="1" parent="1">
          <mxGeometry x="498" y="297" width="64" height="41" as="geometry" />
        </mxCell>
        <mxCell id="gr3GfK4ERSps2pSMuER7-80" value="Số lượng" style="ellipse;whiteSpace=wrap;html=1;rounded=0;fontFamily=Helvetica;fontSize=12;fontColor=default;strokeColor=default;fillColor=default;" vertex="1" parent="1">
          <mxGeometry x="492" y="360" width="64" height="41" as="geometry" />
        </mxCell>
        <mxCell id="gr3GfK4ERSps2pSMuER7-81" value="Gía" style="ellipse;whiteSpace=wrap;html=1;rounded=0;fontFamily=Helvetica;fontSize=12;fontColor=default;strokeColor=default;fillColor=default;" vertex="1" parent="1">
          <mxGeometry x="411" y="386" width="64" height="41" as="geometry" />
        </mxCell>
        <mxCell id="gr3GfK4ERSps2pSMuER7-82" value="" style="endArrow=none;html=1;rounded=0;fontFamily=Helvetica;fontSize=12;fontColor=default;entryX=1;entryY=0.5;entryDx=0;entryDy=0;exitX=0;exitY=0.5;exitDx=0;exitDy=0;" edge="1" parent="1" source="gr3GfK4ERSps2pSMuER7-79" target="gr3GfK4ERSps2pSMuER7-67">
          <mxGeometry width="50" height="50" relative="1" as="geometry">
            <mxPoint x="299" y="416" as="sourcePoint" />
            <mxPoint x="349" y="366" as="targetPoint" />
          </mxGeometry>
        </mxCell>
        <mxCell id="gr3GfK4ERSps2pSMuER7-83" value="" style="endArrow=none;html=1;rounded=0;fontFamily=Helvetica;fontSize=12;fontColor=default;entryX=1;entryY=0.5;entryDx=0;entryDy=0;exitX=0;exitY=0;exitDx=0;exitDy=0;" edge="1" parent="1" source="gr3GfK4ERSps2pSMuER7-80" target="gr3GfK4ERSps2pSMuER7-67">
          <mxGeometry width="50" height="50" relative="1" as="geometry">
            <mxPoint x="299" y="416" as="sourcePoint" />
            <mxPoint x="349" y="366" as="targetPoint" />
          </mxGeometry>
        </mxCell>
        <mxCell id="gr3GfK4ERSps2pSMuER7-84" value="" style="endArrow=none;html=1;rounded=0;fontFamily=Helvetica;fontSize=12;fontColor=default;entryX=1;entryY=0.5;entryDx=0;entryDy=0;exitX=0.609;exitY=0;exitDx=0;exitDy=0;exitPerimeter=0;" edge="1" parent="1" source="gr3GfK4ERSps2pSMuER7-81" target="gr3GfK4ERSps2pSMuER7-67">
          <mxGeometry width="50" height="50" relative="1" as="geometry">
            <mxPoint x="299" y="416" as="sourcePoint" />
            <mxPoint x="349" y="366" as="targetPoint" />
          </mxGeometry>
        </mxCell>
      </root>
    </mxGraphModel>
  </diagram>
</mxfile>
